<svg width="511" height="155" viewBox="0 0 511 155" fill="none" xmlns="http://www.w3.org/2000/svg">
<path d="M194.335 151.848C193.416 150.925 192.956 149.618 192.956 148.08V137.932C192.956 136.394 193.416 135.087 194.335 134.164C195.254 133.242 196.48 132.78 198.012 132.78C199.544 132.78 200.846 133.242 201.765 134.164C202.684 135.087 203.144 136.317 203.144 137.932V138.393C203.144 138.547 203.067 138.7 202.837 138.7H200.693C200.539 138.777 200.386 138.7 200.386 138.547V137.778C200.386 137.009 200.156 136.394 199.697 135.856C199.237 135.394 198.701 135.164 197.935 135.164C197.169 135.164 196.633 135.394 196.173 135.856C195.714 136.317 195.484 136.932 195.484 137.778V148.311C195.484 149.08 195.714 149.695 196.173 150.233C196.633 150.694 197.169 150.925 197.935 150.925C198.701 150.925 199.237 150.694 199.697 150.233C200.156 149.772 200.386 149.157 200.386 148.311V147.542C200.386 147.388 200.463 147.235 200.693 147.235H202.837C202.991 147.312 203.144 147.465 203.144 147.619V148.08C203.144 149.618 202.684 150.925 201.765 151.848C200.846 152.77 199.544 153.232 198.012 153.232C196.48 153.232 195.254 152.77 194.335 151.848Z" fill="white"/>
<path d="M215.553 151.848C214.634 150.925 214.098 149.618 214.098 148.08V138.085C214.098 136.471 214.557 135.241 215.553 134.241C216.549 133.242 217.774 132.78 219.306 132.78C220.838 132.78 222.141 133.242 223.136 134.241C224.056 135.241 224.592 136.471 224.592 138.085V148.08C224.592 149.695 224.132 150.925 223.136 151.848C222.217 152.77 220.915 153.309 219.306 153.309C217.698 153.309 216.472 152.847 215.553 151.848ZM221.145 150.156C221.604 149.618 221.834 149.003 221.834 148.157V137.932C221.834 137.086 221.604 136.471 221.145 135.933C220.685 135.394 220.072 135.164 219.306 135.164C218.54 135.164 218.004 135.394 217.545 135.933C217.085 136.471 216.855 137.086 216.855 137.932V148.157C216.855 149.003 217.085 149.618 217.545 150.156C218.004 150.694 218.617 150.925 219.306 150.925C219.996 150.925 220.685 150.694 221.145 150.156Z" fill="white"/>
<path d="M244.585 135.471H238.227C238.227 135.471 238.15 135.471 238.15 135.548V141.776C238.15 141.776 238.15 141.853 238.227 141.853H242.133C242.287 141.853 242.44 141.929 242.44 142.16V143.928C242.44 144.082 242.363 144.236 242.133 144.236H238.227C238.227 144.236 238.15 144.236 238.15 144.313V152.77C238.15 152.924 238.074 153.078 237.844 153.078H235.699C235.546 153.078 235.393 153.001 235.393 152.77V133.318C235.393 133.165 235.469 133.011 235.699 133.011H244.661C244.814 133.011 244.968 133.088 244.968 133.318V135.087C244.968 135.24 244.891 135.394 244.661 135.394H244.585V135.471Z" fill="white"/>
<path d="M264.883 135.471H258.526C258.526 135.471 258.449 135.471 258.449 135.548V141.776C258.449 141.776 258.449 141.853 258.526 141.853H262.432C262.585 141.853 262.739 141.929 262.739 142.16V143.928C262.739 144.082 262.662 144.236 262.432 144.236H258.526C258.526 144.236 258.449 144.236 258.449 144.313V152.77C258.449 152.924 258.372 153.078 258.143 153.078H255.998C255.845 153.078 255.691 153.001 255.691 152.77V133.318C255.691 133.165 255.768 133.011 255.998 133.011H264.96C265.113 133.011 265.266 133.088 265.266 133.318V135.087C265.266 135.24 265.19 135.394 264.96 135.394H264.883V135.471Z" fill="white"/>
<path d="M285.029 135.471H278.595C278.595 135.471 278.518 135.471 278.518 135.548V141.776C278.518 141.776 278.518 141.853 278.595 141.853H282.502C282.655 141.853 282.808 141.93 282.808 142.16V143.929C282.808 144.082 282.731 144.236 282.502 144.236H278.595C278.595 144.236 278.518 144.236 278.518 144.313V150.541C278.518 150.541 278.518 150.618 278.595 150.618H285.029C285.183 150.618 285.336 150.695 285.336 150.925V152.694C285.336 152.847 285.259 153.001 285.029 153.001H276.067C275.914 153.001 275.761 152.924 275.761 152.694V133.242C275.761 133.088 275.837 132.934 276.067 132.934H285.029C285.183 132.934 285.336 133.011 285.336 133.242V135.01C285.336 135.164 285.259 135.318 285.029 135.318V135.471Z" fill="white"/>
<path d="M305.175 135.471H298.741C298.741 135.471 298.664 135.471 298.664 135.548V141.776C298.664 141.776 298.664 141.853 298.741 141.853H302.648C302.801 141.853 302.954 141.93 302.954 142.16V143.929C302.954 144.082 302.877 144.236 302.648 144.236H298.741C298.741 144.236 298.664 144.236 298.664 144.313V150.541C298.664 150.541 298.664 150.618 298.741 150.618H305.175C305.329 150.618 305.482 150.695 305.482 150.925V152.694C305.482 152.847 305.405 153.001 305.175 153.001H296.213C296.06 153.001 295.907 152.924 295.907 152.694V133.242C295.907 133.088 295.983 132.934 296.213 132.934H305.175C305.329 132.934 305.482 133.011 305.482 133.242V135.01C305.482 135.164 305.405 135.318 305.175 135.318V135.471Z" fill="white"/>
<path d="M343.322 152.924C343.322 153.001 340.871 153.001 340.871 153.001C340.718 153.001 340.641 153.001 340.488 152.847L339.492 151.463H339.339C338.65 152.078 337.884 152.54 337.118 152.847C336.352 153.155 335.509 153.309 334.59 153.309C333.058 153.309 331.832 152.924 330.913 152.078C329.994 151.233 329.534 150.079 329.534 148.465C329.534 146.85 329.841 146.081 330.453 145.159C331.066 144.236 331.832 143.39 332.905 142.545V142.391C332.215 141.468 331.756 140.699 331.449 140.161C331.143 139.623 330.913 139.162 330.836 138.777C330.76 138.393 330.683 137.932 330.683 137.47C330.683 136.086 331.066 134.933 331.909 134.087C332.751 133.242 333.824 132.78 335.203 132.78C336.581 132.78 337.654 133.242 338.573 134.087C339.416 134.933 339.875 136.086 339.875 137.47C339.875 138.854 339.569 139.623 338.956 140.469C338.343 141.314 337.501 142.16 336.505 143.006V143.16L337.884 145.082L339.569 147.312H339.722C339.722 147.235 339.875 147.004 340.028 146.773C340.488 146.004 340.794 145.389 341.024 145.005C341.024 145.005 341.101 144.851 341.177 144.851H341.407L343.016 145.774C343.169 145.851 343.169 146.004 343.092 146.158C342.556 147.235 341.867 148.311 341.101 149.311V149.464L343.322 152.54V152.924ZM337.807 149.541V149.387L334.437 144.774H334.283C333.594 145.389 333.134 145.928 332.751 146.466C332.368 147.004 332.215 147.619 332.215 148.311C332.215 149.003 332.445 149.695 332.905 150.233C333.364 150.694 333.977 150.925 334.82 150.925C335.662 150.925 336.811 150.464 337.807 149.464C337.807 149.516 337.807 149.541 337.807 149.541ZM333.824 135.933C333.441 136.317 333.288 136.855 333.288 137.547C333.288 138.239 333.364 138.47 333.517 138.854C333.671 139.239 334.054 139.931 334.666 140.853C334.666 140.853 334.743 140.93 334.82 140.853C335.509 140.238 336.045 139.7 336.428 139.162C336.811 138.624 336.964 138.085 336.964 137.393C336.964 136.701 336.811 136.24 336.428 135.779C336.122 135.394 335.662 135.164 335.126 135.164C334.59 135.164 334.13 135.394 333.747 135.779V135.933H333.824Z" fill="white"/>
<path d="M374.039 133.088H376.184C376.337 133.088 376.49 133.165 376.49 133.395V152.847C376.49 153.001 376.413 153.155 376.184 153.155H374.039C373.886 153.155 373.732 153.078 373.732 152.847V138.624H373.656L370.898 143.698C370.898 143.852 370.745 143.929 370.668 143.929C370.592 143.929 370.439 143.929 370.439 143.698L367.758 138.624H367.681C367.604 138.624 367.681 138.624 367.681 138.7V152.847C367.681 153.001 367.604 153.155 367.375 153.155H365.23C365.077 153.155 364.923 153.078 364.923 152.847V133.395C364.923 133.242 365 133.088 365.23 133.088H367.375C367.528 133.088 367.604 133.088 367.681 133.319L370.668 138.7H370.822L373.809 133.319C373.809 133.165 373.962 133.088 374.115 133.088H374.039Z" fill="white"/>
<path d="M388.669 151.848C387.75 150.925 387.214 149.618 387.214 148.08V138.085C387.214 136.471 387.673 135.241 388.669 134.241C389.588 133.318 390.891 132.78 392.423 132.78C393.955 132.78 395.257 133.242 396.253 134.241C397.172 135.241 397.708 136.471 397.708 138.085V148.08C397.708 149.695 397.248 150.925 396.253 151.848C395.333 152.77 394.031 153.309 392.423 153.309C390.814 153.309 389.588 152.847 388.669 151.848ZM394.261 150.156C394.721 149.618 394.95 149.003 394.95 148.157V137.932C394.95 137.086 394.721 136.471 394.261 135.933C393.801 135.394 393.189 135.164 392.423 135.164C391.657 135.164 391.12 135.394 390.661 135.933C390.201 136.471 389.971 137.086 389.971 137.932V148.157C389.971 149.003 390.201 149.618 390.661 150.156C391.12 150.694 391.733 150.925 392.423 150.925C393.112 150.925 393.801 150.694 394.261 150.156Z" fill="white"/>
<path d="M416.016 152.924L413.411 144.39C413.411 144.313 411.42 144.313 411.42 144.313V152.847C411.42 153.001 411.42 153.155 411.113 153.155H408.969C408.815 153.155 408.662 153.078 408.662 152.847V133.395C408.662 133.242 408.662 133.088 408.969 133.088H414.024C415.02 133.088 415.863 133.319 416.552 133.78C417.318 134.241 417.854 134.933 418.237 135.779C418.62 136.625 418.85 137.624 418.85 138.7C418.85 139.777 418.62 140.93 418.084 141.853C417.624 142.775 416.935 143.39 416.092 143.775V143.929L419.003 152.694C419.003 152.924 419.003 153.001 418.773 153.001H416.552C416.399 153.001 416.246 153.001 416.246 152.77V152.924H416.016ZM411.19 135.625V142.007C411.19 142.083 413.258 142.083 413.258 142.083C414.024 142.083 414.637 141.776 415.173 141.161C415.633 140.546 415.863 139.777 415.863 138.777C415.863 137.778 415.633 136.932 415.173 136.317C414.714 135.702 414.101 135.394 413.258 135.394H411.19V135.625Z" fill="white"/>
<path d="M438.842 135.548H432.408V141.853C432.408 141.929 436.315 141.929 436.315 141.929C436.468 141.929 436.621 142.006 436.621 142.237V144.005C436.621 144.159 436.621 144.313 436.315 144.313H432.408V150.617C432.408 150.694 438.842 150.694 438.842 150.694C438.996 150.694 439.149 150.771 439.149 151.002V152.77C439.149 152.924 439.149 153.078 438.842 153.078H429.88C429.727 153.078 429.574 153.001 429.574 152.77V133.318C429.574 133.165 429.574 133.011 429.88 133.011H438.842C438.996 133.011 439.149 133.088 439.149 133.318V135.087C439.149 135.24 439.149 135.394 438.842 135.394V135.548Z" fill="white"/>
<path d="M78.0556 152.078C77.1364 151.156 76.6768 149.849 76.6768 148.311V138.162C76.6768 136.624 77.1364 135.317 78.0556 134.395C78.9748 133.472 80.2004 133.011 81.7324 133.011C83.2644 133.011 84.5666 133.472 85.4858 134.395C86.405 135.317 86.8646 136.547 86.8646 138.162V138.623C86.8646 138.777 86.8646 138.931 86.5582 138.931H84.4134C84.2602 139.008 84.107 138.931 84.107 138.777V138.008C84.107 137.239 83.8772 136.624 83.4176 136.086C82.958 135.625 82.4218 135.394 81.6558 135.394C80.8898 135.394 80.3536 135.625 79.894 136.086C79.4344 136.547 79.2046 137.163 79.2046 138.008V148.541C79.2046 149.31 79.4344 149.925 79.894 150.464C80.3536 150.925 80.8898 151.156 81.6558 151.156C82.4218 151.156 82.958 150.925 83.4176 150.464C83.8772 150.002 84.107 149.387 84.107 148.541V147.773C84.107 147.619 84.107 147.465 84.4134 147.465H86.5582C86.7114 147.542 86.8646 147.696 86.8646 147.85V148.311C86.8646 149.849 86.405 151.156 85.4858 152.078C84.5666 153.001 83.2644 153.462 81.7324 153.462C80.2004 153.462 78.9748 153.001 78.0556 152.078Z" fill="white"/>
<path d="M105.478 152.847L102.874 144.313C102.874 144.313 102.874 144.236 102.797 144.236H100.806C100.806 144.236 100.729 144.236 100.729 144.313V152.77C100.729 152.924 100.653 153.078 100.423 153.078H98.2781C98.1249 153.078 97.9717 153.001 97.9717 152.77V133.318C97.9717 133.165 97.9717 133.011 98.2781 133.011H103.334C104.329 133.011 105.172 133.241 105.861 133.703C106.628 134.164 107.164 134.856 107.547 135.702C107.93 136.547 108.16 137.547 108.16 138.623C108.16 139.7 107.93 140.853 107.394 141.776C106.934 142.698 106.245 143.313 105.402 143.698V143.852L108.313 152.616C108.313 152.847 108.236 152.924 108.083 152.924H105.861C105.708 152.924 105.555 152.924 105.555 152.693V152.847H105.478ZM100.653 135.548V141.929C100.653 141.929 100.653 142.006 100.729 142.006H102.797C103.563 142.006 104.176 141.699 104.712 141.084C105.172 140.469 105.402 139.7 105.402 138.7C105.402 137.701 105.172 136.855 104.712 136.24C104.253 135.625 103.64 135.317 102.797 135.317H100.729C100.729 135.317 100.653 135.317 100.653 135.394V135.548Z" fill="white"/>
<path d="M126.084 152.847L125.471 149.541C125.471 149.464 120.645 149.464 120.645 149.464C120.645 149.541 120.032 152.847 120.032 152.847C120.032 153.001 119.879 153.078 119.726 153.078H117.581C117.505 153.078 117.428 153.078 117.351 153.001C117.275 152.924 117.351 152.847 117.351 152.77L121.564 133.319C121.564 133.165 121.718 133.088 121.871 133.088H124.399C124.552 133.088 124.705 133.165 124.705 133.319L128.995 152.77C128.995 153.001 128.918 153.078 128.765 153.078H126.543C126.39 153.078 126.237 153.001 126.237 152.847H126.084ZM121.105 147.235H124.858C124.858 147.235 124.935 147.235 124.935 147.158L123.02 137.009L121.105 147.158C121.105 147.158 121.105 147.235 121.181 147.235H121.105Z" fill="white"/>
<path d="M147.072 135.394H140.715C140.715 135.394 140.638 135.394 140.638 135.471V141.699C140.638 141.699 140.638 141.776 140.715 141.776H144.621C144.774 141.776 144.928 141.853 144.928 142.083V143.852C144.928 144.006 144.851 144.159 144.621 144.159H140.715C140.715 144.159 140.638 144.159 140.638 144.236V152.694C140.638 152.847 140.561 153.001 140.332 153.001H138.187C138.034 153.001 137.88 152.924 137.88 152.694V133.242C137.88 133.088 137.957 132.934 138.187 132.934H147.149C147.302 132.934 147.455 133.011 147.455 133.242V135.01C147.455 135.164 147.379 135.318 147.149 135.318H147.072V135.394Z" fill="white"/>
<path d="M167.754 133.318V135.087C167.754 135.24 167.678 135.394 167.448 135.394H163.694C163.694 135.394 163.618 135.394 163.618 135.471V152.693C163.618 152.847 163.541 153.001 163.311 153.001H161.167C161.013 153.001 160.86 152.924 160.86 152.693V135.471C160.86 135.471 160.86 135.394 160.784 135.394H157.26C157.107 135.394 156.954 135.317 156.954 135.087V133.318C156.954 133.165 157.03 133.011 157.26 133.011H167.448C167.601 133.011 167.754 133.088 167.754 133.318Z" fill="white"/>
<path d="M400.466 46.8998C400.236 47.5149 400.772 47.9762 400.772 48.13C401.002 49.2832 400.925 49.9752 400.772 50.8978C400.619 51.8204 401.538 54.8189 401.768 55.7416C402.534 58.8938 402.151 62.7381 403.836 65.6597V66.3517C403.453 67.5818 403.836 71.1186 404.143 72.5025C404.449 73.8864 404.909 72.4256 404.449 74.1939C403.989 75.9623 404.679 75.6548 405.138 76.2698L404.832 78.3457C404.832 78.4995 405.138 78.5764 405.138 78.6533C405.675 80.191 406.058 82.19 406.134 83.8046C406.211 85.4191 406.134 85.9573 406.134 87.0337C406.747 87.0337 407.436 87.1106 408.049 87.0337C408.662 86.9568 408.356 86.4955 408.892 86.7262C409.045 86.188 408.432 85.9573 408.585 85.496C409.045 83.7277 409.122 81.6518 409.581 80.0372C410.041 78.4226 410.194 79.5759 410.271 79.3452C410.73 77.5769 410.041 75.2703 410.577 73.1944C411.113 71.1186 411.19 72.7331 411.266 72.5025C412.109 69.3502 411.803 65.8904 412.952 62.8919C412.952 62.815 412.645 62.6612 412.645 62.5843C412.415 61.2004 414.024 60.2778 412.952 58.817C413.105 58.5863 413.564 57.9712 413.641 57.8175C414.33 56.0491 413.488 53.7426 415.02 52.3586L414.713 50.9747L415.403 50.2827L415.096 48.5913C415.479 48.2837 415.862 47.5918 416.322 47.3611C416.782 47.1305 416.552 47.3611 416.628 47.3611C416.705 47.3611 416.858 47.0536 416.935 47.0536C417.318 46.9767 418.543 47.0536 419.003 47.0536C419.846 47.1305 420.841 47.5918 422.067 47.3611C423.905 47.0536 426.433 47.3611 428.195 47.0536C429.957 46.746 430.953 47.2073 431.948 47.3611C432.944 47.5149 433.634 47.1305 433.863 47.8993C434.093 48.6682 433.863 48.3606 433.863 48.5913C433.863 48.8219 434.17 48.8219 434.17 48.8988C434.17 48.9757 433.634 49.3601 433.863 50.2827C434.4 52.6662 435.625 55.8185 435.242 58.2019L435.932 59.2014L435.625 61.2773C436.698 62.2768 436.851 63.5838 436.315 64.8909H437.004C437.157 65.0446 436.851 66.3517 437.004 66.813C437.157 67.2743 438.076 67.5818 437.693 69.1964C437.31 70.811 438.153 71.2723 438.383 72.6563C438.613 74.0402 438.23 74.4246 438.383 75.0397C438.536 75.6548 438.996 75.501 439.072 75.7316C439.455 77.1156 439.072 80.5754 439.379 82.2669C439.685 83.9583 440.298 84.0352 440.374 84.6503C440.451 85.2654 440.374 86.188 440.374 86.88C440.911 86.7262 441.064 87.1875 441.217 87.1875C443.285 87.6488 442.596 85.8036 442.749 84.6503C443.132 81.8056 444.051 78.0382 443.745 75.3472C445.047 70.8879 446.502 65.5828 446.119 60.8929V60.5853C447.039 59.5089 446.656 58.2788 447.498 57.1255C446.349 56.0491 447.728 54.8189 447.805 54.3576C448.111 53.2812 447.805 50.8209 448.111 49.5139C448.417 48.2068 448.417 49.2832 448.417 49.2064C448.647 48.6682 449.03 47.5149 449.643 47.2842C450.256 47.0536 450.562 47.2842 451.022 46.5923H451.328C452.247 47.438 453.55 47.438 454.775 47.2842C456.001 47.1305 455.005 46.9767 455.082 46.9767C457.15 46.746 458.759 48.0531 460.52 47.6687C462.282 47.2842 461.363 47.1305 461.516 46.9767L462.742 47.8224C462.665 48.8219 462.895 49.9752 462.742 50.8978C462.512 52.2817 461.746 53.0506 462.052 54.6652C462.359 56.2798 460.75 56.4335 461.746 57.433V57.7406C460.444 58.5863 461.669 60.0471 460.367 60.816C461.516 61.8924 460.137 63.1225 460.061 63.5838C459.678 64.814 460.597 66.4286 459.065 67.7356L459.371 69.4271C457.456 71.5799 458.682 74.9628 456.997 77.3462L457.303 79.0377L456.307 81.1136C456.307 81.2674 456.614 81.3442 456.614 81.4211C456.92 82.6513 455.771 83.4201 455.618 84.189C455.465 84.9578 455.465 86.5724 455.312 87.6488C454.545 91.6468 452.937 96.0293 453.243 100.027C451.864 101.411 452.477 103.333 451.864 104.871C451.252 106.409 451.558 105.102 451.558 105.179C451.558 105.255 451.558 105.409 451.558 105.486C451.481 105.64 450.869 106.255 450.715 106.332C450.562 106.409 450.486 106.332 450.409 106.332C450.332 106.332 450.179 106.639 450.103 106.639C449.72 106.716 448.494 106.639 448.034 106.639C445.736 106.332 443.132 106.87 440.528 106.639C437.923 106.409 438.996 106.178 437.081 106.639C435.166 107.101 435.242 106.101 434.017 106.332C432.791 106.562 433.634 106.87 433.021 106.639C432.408 106.409 432.638 105.64 432.485 105.409C431.795 103.872 431.872 103.103 431.489 101.642C431.106 100.181 431.182 101.411 431.182 101.334C430.876 100.412 431.029 99.4122 430.876 98.5665C430.57 97.1057 430.876 94.7991 430.57 93.7227C430.263 92.6463 429.957 93.2614 429.88 93.0308C429.344 91.1855 428.884 88.2639 429.191 86.4955C427.352 85.496 428.578 83.497 428.195 82.0362C427.812 80.5754 426.969 81.3442 427.889 79.9603C427.046 77.5 425.897 74.2708 426.203 72.0412V71.7336C425.667 71.2723 425.361 70.9648 425.514 70.1959H423.829L424.135 71.0417C422.756 71.8874 423.293 72.5794 423.139 73.8095C422.986 75.0397 422.986 75.8085 422.833 76.5774C422.68 77.3462 422.22 76.9618 422.527 77.9613C422.833 78.9608 421.224 81.5749 421.531 83.1126C421.914 85.3423 420.765 85.6498 420.535 86.88C420.305 88.1101 420.458 89.4172 420.229 90.3398C419.999 91.2624 419.616 90.8011 419.539 91.0317C419.233 92.1081 419.692 94.2609 419.539 95.4911C419.309 97.2594 417.548 98.6433 418.543 100.642C417.854 101.334 418.007 102.564 417.854 103.41C417.701 104.256 416.935 104.794 416.858 105.102C416.782 105.409 417.011 106.486 416.322 106.639C415.633 106.793 414.943 106.639 414.637 106.639C413.411 106.486 412.032 106.101 410.5 106.332C408.968 106.562 409.964 106.87 409.122 106.639C407.666 106.332 407.207 106.87 406.058 106.639C404.909 106.409 401.385 106.409 400.236 106.639C399.087 106.87 398.934 106.332 398.857 106.332C398.781 106.332 398.551 106.87 398.015 106.639C398.244 106.024 397.708 105.64 397.708 105.409C397.325 103.872 397.325 102.334 397.019 100.95C396.712 99.566 395.64 99.0278 396.712 97.4901C395.027 95.7986 396.1 93.4152 394.644 91.6468L394.95 90.2629C393.035 86.9568 393.878 82.1131 391.887 78.5764L392.193 77.5769C390.431 74.1171 391.81 70.6572 389.818 67.2743C387.827 63.8914 389.282 62.815 388.823 60.7391C388.363 58.6632 388.44 58.5863 388.133 57.6637C387.827 56.7411 387.75 54.8958 387.444 53.5119C387.137 52.128 386.371 50.744 386.065 49.3601C385.758 47.9762 386.065 48.5144 386.065 48.13C386.831 48.4375 387.52 46.8998 387.98 46.746C388.439 46.5923 388.439 46.746 388.669 46.746C388.976 46.6691 389.206 46.2078 390.048 46.4385C390.891 46.6691 391.657 46.9767 392.806 46.746C393.955 46.5154 395.104 46.5923 396.942 46.746C398.781 46.8998 399.623 46.6691 400.849 46.746L400.466 46.8998ZM419.616 53.7426H418.926L419.463 54.4345H419.616V53.7426ZM428.195 53.7426L427.199 54.2808L427.735 55.1265L428.272 54.5883V53.7426H428.195ZM457.227 57.5099C458.222 56.9717 458.758 55.2034 457.763 54.4345L456.92 55.6647L457.227 57.5868V57.5099ZM398.091 56.126V55.2803L397.555 54.7421L397.019 55.5878L398.015 56.126H398.091ZM450.026 58.2019L451.941 58.8938C453.243 58.8938 452.937 57.1255 451.252 57.5099L450.026 58.2019ZM457.61 57.8943C456.69 57.8175 455.848 57.8943 455.924 58.8938C456.843 58.9707 457.686 58.8939 457.61 57.8943ZM394.338 59.2014V58.2019H394.184L393.648 58.7401V59.2783H394.338V59.2014ZM400.849 61.2773V60.5853H400.542V61.2773H400.849ZM456.231 62.3537H455.541L456.078 63.0456H456.231V62.3537ZM431.259 67.1205L432.255 64.8909V64.5833L431.412 63.3532L430.723 66.121L431.259 67.1205ZM455.541 65.7366L454.699 63.6607C453.32 64.3527 455.465 65.8135 455.541 65.7366ZM423.369 66.121V65.4291H423.063V66.121H423.369ZM393.648 70.5804V69.8884H393.342V70.5804H393.648ZM454.852 70.5804H454.162L454.699 71.2723H454.852V70.5804ZM455.158 71.5799H454.469V71.8874H455.158V71.5799ZM432.944 72.9638C433.097 73.1176 433.863 72.3487 433.634 71.9643C433.48 71.8105 432.714 72.5794 432.944 72.9638ZM415.173 73.3482V72.3487H414.867V73.3482H415.173ZM397.019 72.6563H396.329V72.9638H397.019V72.6563ZM436.008 74.6553V73.9633L435.319 74.5015V74.6553H436.008ZM413.488 75.3472H412.798C412.722 75.9623 412.798 76.3467 413.335 76.7312H413.488V75.3472ZM446.656 77.1156H445.66V77.2693L446.196 77.8075H446.732V77.1156H446.656ZM414.867 78.4226H414.177V79.4221L414.867 78.8839V78.3457V78.4226ZM418.62 79.8066H417.931V80.4985H418.62V79.8066ZM397.402 81.5749C398.244 81.7287 398.551 81.2674 399.087 80.7292L398.244 80.191L397.402 81.5749ZM412.109 86.7262C413.258 86.88 414.024 86.1111 412.952 85.3423H412.109V86.7262ZM451.098 87.7257H450.256L449.72 88.2639L450.562 88.8021L451.098 87.8026V87.7257ZM447.651 92.5694C447.881 91.8775 447.345 91.5699 447.345 91.3393C447.115 90.6473 448.341 89.8785 447.039 89.4172L446.732 91.3393L445.736 91.8775V93.2614L447.805 92.5694H447.651ZM450.715 90.4935H450.026V92.185H450.715V90.4935ZM413.105 91.1855H412.415L412.952 91.8775H413.105V91.1855ZM399.776 93.8765C401.002 93.4152 400.236 92.6463 400.083 91.8006H399.776V93.8765ZM409.045 94.2609L408.892 91.8775C408.049 92.7232 407.436 94.184 409.045 94.2609ZM435.702 92.185H435.012V92.4926H435.702V92.185ZM446.273 95.6448C445.43 95.4911 444.817 95.7986 444.894 96.6443C445.736 96.7981 446.349 96.4906 446.273 95.6448ZM450.715 95.9524H449.72V96.1061L450.256 96.6443H450.792V95.9524H450.715ZM441.523 99.0278H439.991L439.455 100.027L441.523 99.0278ZM449.413 101.104C448.571 100.95 447.958 101.257 448.034 102.103H449.413V101.104ZM405.904 101.796H405.215V102.488H405.904V101.796ZM438.459 101.796H437.77V102.488H438.459V101.796ZM439.455 102.488H438.766V102.795H439.455V102.488ZM436.698 104.179V103.487H436.391V104.179H436.698Z" fill="white"/>
<path d="M81.0427 87.4185H82.5747L83.1109 86.8803C83.1109 86.5727 83.1109 86.1883 83.1109 85.8808C83.3407 84.8813 83.1109 85.1119 83.1109 84.8813C83.1109 84.6506 83.7237 83.1129 83.8003 82.8054C84.4131 80.1913 84.1833 77.039 84.7961 74.5787C85.4089 72.1184 85.7919 73.3485 85.7919 73.1948C86.0217 72.349 85.8685 70.4269 86.0983 69.4274C86.4813 67.8128 86.6345 65.5831 87.0941 63.5841C87.5537 61.5851 87.3239 61.4314 87.4005 60.1243C87.7069 57.4333 89.6219 54.2042 88.7793 51.5132C89.4687 51.0519 88.9325 50.0524 89.0857 49.4373C89.2389 48.8222 90.6943 47.669 91.0007 47.5152C91.3071 47.3614 92.0731 47.2845 92.3795 46.8232L93.3753 47.1308C94.2945 46.0544 95.0605 47.3614 95.4435 47.4383C95.8265 47.5152 97.4351 47.4383 97.8181 47.4383C98.2011 47.4383 98.0479 47.1308 98.1245 47.1308C99.6565 46.8232 100.652 47.1308 102.261 46.8232C102.491 46.977 103.18 47.5152 103.257 47.5152C104.636 47.8227 105.785 46.977 107.01 47.5152L107.546 47.2077L108.542 49.7449C107.7 52.1283 109.998 55.5881 109.232 57.9715C109.921 58.4329 110.151 59.9706 110.227 60.7394C110.457 62.8153 110.227 66.352 111.223 67.9666C112.219 69.5812 111.759 68.9661 111.913 70.0425C112.296 72.2721 112.372 74.4249 112.908 76.5777C113.445 78.7305 113.062 78.9611 113.215 79.6531C113.368 80.3451 113.828 80.1144 113.904 80.3451C114.134 81.2677 113.521 83.3436 113.904 84.8044C114.287 86.2652 114.517 85.2657 114.594 85.4963C114.67 85.8808 114.594 86.5727 114.594 87.034C115.36 86.8803 115.666 87.1878 116.126 87.726L116.968 86.1883C116.968 85.1888 116.968 84.1893 117.658 83.4205C117.581 81.1908 117.658 78.4998 118.653 76.1933C117.964 74.6556 119.036 71.6571 119.649 70.0425L119.343 69.043C120.109 66.5827 119.726 63.5073 121.028 61.1238C120.645 59.7399 121.028 57.2796 121.334 55.665C121.641 54.0504 122.637 52.3589 122.33 50.8212C122.024 49.2835 122.024 50.5906 122.024 50.5137C122.024 50.4368 122.33 50.2831 122.33 50.2062C122.33 49.8986 122.33 49.4373 122.33 49.2067C122.33 48.976 122.943 48.7454 123.02 48.5147C123.096 48.284 123.02 48.0534 123.02 47.8227C123.173 47.1308 124.935 46.8232 125.547 46.977C126.16 47.1308 125.777 47.2845 125.854 47.2845C127.003 47.4383 129.301 47.7459 130.297 47.5921C131.292 47.4383 132.595 47.4383 133.744 47.2845C134.893 47.1308 135.582 47.2077 136.118 47.2845C136.961 47.3614 137.114 48.1303 137.344 48.8222C136.425 49.5911 136.808 50.7444 136.654 51.5901C136.501 52.4358 135.965 52.5127 135.965 52.5896C135.429 54.973 136.118 58.5097 134.586 60.5087C135.735 61.4314 134.05 62.1233 133.897 62.5846C133.744 63.0459 134.05 64.0455 133.897 64.6605C133.744 65.2756 133.207 65.5832 133.207 65.66C132.824 67.5822 133.207 69.8887 132.901 71.8108C132.595 73.733 131.675 73.3485 131.522 73.8867C131.292 75.04 131.599 76.2702 131.216 77.6541C130.833 79.038 131.063 78.1154 131.216 78.6536C131.599 80.1913 130.373 80.8064 130.22 81.729C130.067 82.6516 130.373 83.1898 130.22 83.8049C130.067 84.42 129.531 84.7275 129.531 84.8044C129.301 85.8808 129.454 87.2647 129.224 88.5717C128.841 90.5707 128.382 92.8004 127.845 94.7225C127.309 96.6447 127.156 99.4894 126.16 101.258C126.16 101.335 126.467 101.488 126.467 101.565C126.696 102.719 125.93 103.026 125.777 103.641C125.624 104.256 125.854 105.102 125.777 105.717C125.701 106.332 125.241 106.025 125.471 106.563C124.935 106.717 124.781 106.255 124.628 106.255C122.56 105.871 120.109 107.024 118.117 106.563C116.126 106.102 111.53 106.102 109.538 106.563C107.546 107.024 107.929 106.025 107.01 106.255C107.163 105.717 106.704 105.563 106.704 105.41C106.474 104.794 106.244 103.949 106.014 103.334C105.402 101.335 105.555 99.2587 105.019 97.4904C104.099 94.5688 104.023 91.4934 102.95 88.5717L103.257 87.5722C101.878 86.4958 102.414 84.7275 102.261 83.1129C102.031 80.6526 101.189 77.5003 100.193 75.1938L100.499 73.8098C99.9629 73.5023 100.269 73.1179 100.193 72.8103C100.116 72.5028 98.8139 71.8877 99.8863 71.1189L99.3501 70.2731C96.5925 69.9656 97.8181 71.5033 97.4351 72.8103C97.0521 74.1174 96.8223 73.2716 96.7457 73.5023C96.5159 74.1943 96.9755 75.5782 96.7457 76.2702C96.5159 76.9621 96.1329 76.7315 96.0563 76.9621C95.5967 78.7305 95.7499 81.5752 95.3669 83.4973C94.9839 85.4195 94.6775 84.42 94.6775 84.4968C94.5243 85.3426 94.8307 86.6496 94.6775 87.5722C94.5243 88.4949 93.3753 89.4175 93.2987 89.6481C93.0689 90.4939 93.4519 92.3391 93.2987 93.4155C93.1455 94.4919 91.6901 96.5678 92.6093 97.8748V98.1823C91.4603 99.105 91.9965 101.258 91.6135 102.642C91.2305 104.026 91.0007 103.103 90.9241 103.334C90.7709 103.872 91.0007 104.794 90.9241 105.41C90.6177 105.563 89.4687 106.563 89.3921 106.64C89.0091 106.717 88.4729 106.64 88.0133 106.64C87.5537 106.64 87.7835 106.947 87.7069 106.947C87.1707 106.947 85.8685 107.024 85.3323 106.947C84.7961 106.87 85.1025 106.64 85.0259 106.64C83.8769 106.332 83.1875 106.486 82.2683 106.332C81.3491 106.178 80.2001 106.332 79.5107 107.024L77.4425 106.332L76.0637 107.024C75.9105 107.024 75.8339 106.717 75.7573 106.717C75.0679 106.563 72.0038 106.87 71.8506 106.717C71.8506 106.255 71.8506 105.64 71.8506 105.179C71.6974 104.179 70.7016 102.565 70.8548 101.719C71.1612 99.9507 69.859 98.7974 69.476 97.2597C69.093 95.722 69.9356 92.0316 68.0972 90.0326L68.4036 88.3411C67.6376 87.2647 66.8716 85.6501 67.7142 84.5737C67.0248 83.2667 66.029 81.2677 66.3354 79.73C66.6418 78.1923 66.029 77.3465 65.646 75.9626C64.9566 73.4254 65.0332 71.2726 64.2672 68.7354C63.5012 66.1982 63.6544 68.2741 63.5778 68.0435C63.1948 66.6595 64.2672 64.8912 62.582 63.8917C63.5012 62.8922 62.582 61.4314 61.8926 60.4319L62.582 59.4324C61.2798 58.4329 62.582 56.4338 60.8968 55.2806C60.8968 55.2037 61.2032 55.0499 61.2032 54.973C61.433 53.666 60.5904 53.5891 60.5138 53.2816C60.3606 52.6665 60.667 51.5132 60.5138 50.8981C60.3606 50.2831 59.5946 50.3599 59.8244 49.5142C60.0542 48.6685 60.1308 49.2835 60.1308 49.2067C60.1308 48.8991 60.0542 48.4378 60.1308 48.2072C60.2074 47.9765 61.1266 47.3614 61.3564 46.977L62.7352 47.669L63.731 47.3614L64.7268 47.669C66.2588 46.9001 68.4802 47.5152 69.859 47.3614C71.2378 47.2077 72.923 47.2845 73.306 47.3614C74.3785 47.669 74.0721 49.2067 74.1487 49.8986C74.2253 50.5906 74.3785 51.5901 74.4551 52.2821C74.5317 52.974 75.7573 53.5122 75.4509 54.358C74.6083 57.2027 77.0595 59.5861 76.1403 62.2771C77.4425 64.1992 77.2127 66.4289 77.8255 68.8123C78.4383 71.1957 77.8255 70.5038 78.1319 71.8877C78.4383 73.2716 78.2851 75.5013 79.1277 77.039L78.4383 78.7305L79.4341 80.1144C79.4341 80.4219 79.4341 80.8832 79.4341 81.1139C79.2043 82.1134 79.2809 83.4973 80.1235 84.5737L79.8171 85.9577L80.5065 87.4954L81.0427 87.4185ZM99.5033 48.8991H98.8139V49.5911L99.5033 48.8991ZM98.1245 52.3589V51.5132L97.2819 50.975L96.7457 51.8208L97.2819 52.3589H98.1245ZM102.567 51.667H101.878V52.3589H102.567V51.667ZM68.0206 53.4353V52.4358H67.7142V53.4353H68.0206ZM93.9881 52.7434H93.2987V53.0509H93.9881V52.7434ZM68.4036 54.0504H67.7142L68.2504 54.7424H68.4036V54.0504ZM106.704 55.4343V54.7424H106.397V55.4343H106.704ZM104.253 55.4343H103.563V56.4338H104.253V55.4343ZM95.0605 56.8183V56.1263H94.7541V56.8183H95.0605ZM131.292 58.5866H130.603V58.8942H131.292V58.5866ZM73.5359 58.8942H72.3102L71.774 59.7399L72.3102 60.2781L73.5359 59.9706V58.971V58.8942ZM126.543 59.8937H125.854V60.2012H126.543V59.8937ZM132.671 59.8937H131.982V60.2012H132.671V59.8937ZM130.297 62.6615C131.063 62.6615 131.599 62.8153 131.982 62.1233L131.446 61.5851H131.139L130.297 62.5846V62.6615ZM130.297 63.0459H129.607V63.3535H130.297V63.0459ZM106.014 64.0455V63.3535H105.708V64.0455H106.014ZM68.71 64.353V63.661H68.4036V64.353H68.71ZM73.5359 65.4294V64.4299H73.2294V65.4294H73.5359ZM98.4309 65.7369H97.4351V66.0445H98.4309V65.7369ZM129.224 69.5043L128.918 67.1209C129.071 67.8897 127.769 69.7349 129.224 69.5043ZM123.096 69.1967H122.1L122.943 70.1962H123.096V69.1967ZM130.986 70.8882L130.45 69.8887H129.607L130.143 70.8882H130.986ZM92.3029 70.5807H91.6135V71.2726H92.3029V70.5807ZM126.543 72.2721L124.169 72.4259C124.858 73.3485 125.471 73.3485 126.543 73.2716V72.2721ZM75.2211 77.1159C75.2211 76.0395 74.9147 75.1938 75.9105 74.5787V74.2711C75.0679 72.8872 73.0762 73.1179 73.5359 74.9631C73.9955 76.8083 74.1487 75.8088 74.2253 75.9626C74.3785 76.347 74.0721 77.2697 75.2211 77.1928V77.1159ZM104.942 74.6556V73.9636H104.636V74.6556H104.942ZM91.3071 75.04H90.6177V75.3475H91.3071V75.04ZM76.2169 79.4993C75.7573 79.038 73.4593 81.4214 74.9913 82.2672C75.7573 81.8059 75.3743 81.1908 75.5275 80.7295C75.6807 80.2682 76.2935 79.6531 76.2169 79.4993ZM89.9283 80.8832V80.1913H89.6219V80.8832H89.9283ZM124.475 81.8828H123.479L123.786 84.2662H126.543L126.237 82.1903L125.011 82.8823L124.475 81.8828ZM90.9241 86.3421C90.1581 86.3421 89.6219 86.1883 89.2389 86.8803C89.9283 87.8029 91.0007 87.4954 90.9241 86.3421ZM123.096 87.4185C123.173 86.7265 122.713 86.2652 122.1 86.419V87.4185H123.096ZM72.4634 90.1094V89.4175H72.157V90.1094H72.4634ZM115.896 91.4934C115.589 91.1858 114.287 92.2622 114.517 92.8773C114.823 93.1848 116.126 92.1084 115.896 91.4934ZM83.4173 93.1848L82.8811 92.4929H81.8853L81.3491 93.0311V93.1848H83.4173ZM72.157 96.3371V95.6452H71.8506V96.3371H72.157ZM114.517 96.6447V95.9527H114.211V96.6447H114.517ZM119.343 97.3366H118.653V97.8748L119.19 98.413H119.343V97.4135V97.3366ZM116.585 97.721H115.896V98.0286H116.585V97.721ZM112.525 102.18L110.993 102.872L111.3 103.872L112.525 102.18Z" fill="white"/>
<path d="M23.5924 47.2077C23.7456 47.7459 23.286 47.8997 23.286 48.0535C23.1328 48.8223 23.8222 49.8987 23.5924 51.1289C22.8264 56.1264 23.8988 61.5083 22.903 66.5827L23.5924 68.2742C22.52 69.1968 23.7456 72.8873 23.5924 73.4255C22.7498 76.1933 23.5924 77.5773 23.286 80.2682C22.9796 82.9592 23.5158 87.5723 22.9796 91.2628L23.669 92.2623L23.3626 93.2618C24.1286 94.492 24.9712 93.8769 25.8904 94.1075C26.8096 94.3382 27.1927 93.9538 27.9587 94.1075C29.5673 94.492 32.0951 93.9538 34.0867 94.4151C36.0783 94.8764 35.2357 94.1075 36.0017 94.1075V50.6676L36.5379 50.1294L37.7635 50.4369L36.9209 49.4374H36.3847C36.2315 47.8997 36.2315 47.054 37.9167 46.6695L39.2955 47.3615L41.3637 46.362L43.0489 46.6695C44.4277 46.0545 46.3427 46.9771 48.1811 46.6695C50.0195 46.362 48.7173 46.1313 49.5599 46.362C50.8621 46.7464 50.2493 49.5143 50.4025 50.6676C50.6323 52.2821 50.2493 53.3585 50.4025 55.1269C50.6323 57.6641 50.4025 60.7395 50.7089 63.046C51.0153 65.3526 50.3259 64.5068 50.4025 64.7375L50.7089 65.5832C51.5515 65.5832 52.4707 65.5063 53.2367 65.5832C54.0027 65.6601 53.4665 65.8908 53.5431 65.8908C54.9219 65.9676 57.1433 65.6601 58.3689 65.8908C59.5945 66.1214 58.5987 66.1983 58.6753 66.1983C58.7519 66.1983 58.9817 66.1983 58.9817 66.1983C59.9775 66.8134 59.6711 68.0435 59.8243 68.7355C59.9775 69.4275 60.4371 69.1968 60.5137 69.4275C60.6669 70.0426 60.5137 70.9652 61.2031 71.5034V72.1953C60.2839 72.8873 61.2031 74.1943 61.2031 74.5788C61.3563 76.2702 60.8967 78.8843 61.2031 80.422C61.5096 81.9597 61.8926 81.3446 61.8926 81.4215C62.1224 82.6517 61.3563 83.6512 61.5862 84.4969C62.199 87.1879 61.5861 87.3417 61.2797 89.6482C60.9733 91.9548 61.6628 91.4934 61.5862 91.7241C61.5096 91.9548 61.2797 91.9548 61.2797 92.0316C61.2797 92.3392 61.3563 92.8005 61.2797 93.0311C61.2031 93.2618 60.1307 94.0306 59.9009 94.4151C59.6711 94.7995 59.3647 96.1065 58.6753 96.3372C57.9859 96.5679 57.9093 96.2603 57.6795 96.3372C57.4497 96.4141 56.9135 97.2598 56.6837 97.3367C55.8411 97.5674 55.0751 97.5674 54.3091 97.6442C53.5431 97.7211 54.0793 97.9518 54.0027 97.9518C53.2367 98.0287 51.7813 98.1055 51.2451 97.6442C50.7855 97.8749 50.8621 98.3362 50.7089 98.49C50.0195 99.797 50.0195 99.9508 49.7131 101.258C49.4067 102.565 48.4109 102.488 48.7173 103.18C46.9555 102.719 47.2619 103.949 47.0321 104.179C46.8023 104.41 46.7257 104.103 46.4959 104.179C45.5767 104.564 43.7383 105.794 43.0489 105.871C42.0531 106.025 40.5977 105.717 39.6019 105.871C38.6061 106.025 37.1507 105.871 35.4655 106.178C33.7803 106.486 33.3207 105.64 32.0185 105.871C30.7163 106.102 28.6481 105.948 27.1927 106.178C25.7372 106.409 22.0604 105.486 19.9922 105.871C17.924 106.255 19.6092 106.409 18.9964 106.178C17.7708 105.794 17.3878 106.025 16.2388 105.871C15.0898 105.717 16.009 105.563 15.9324 105.563C15.626 105.563 15.1664 105.64 14.9366 105.563C14.7068 105.487 14.7068 105.256 14.6302 105.256C14.4004 105.256 14.1706 105.256 13.9408 105.256C13.1748 105.025 11.3364 102.642 10.3406 102.027C10.3406 100.95 9.5746 99.8739 8.9618 98.9513L9.9576 98.4131L8.9618 96.8754C9.1916 95.5683 8.732 93.5693 8.9618 92.4161C9.1916 91.2628 9.2682 92.4161 8.9618 91.4166C8.6554 90.4171 8.5788 87.4185 8.9618 86.2653C9.498 84.5738 8.349 81.4984 8.6554 79.73C9.498 74.0406 8.8086 66.8903 8.6554 61.2008C9.9576 59.9706 9.115 58.5098 8.9618 57.4334C8.732 55.05 9.3448 51.5902 8.9618 49.8987C8.5788 48.2072 9.115 47.7459 8.9618 46.8233L9.498 46.2851C11.2598 46.4389 13.2514 46.1313 14.9366 46.2851C16.6218 46.4389 18.0772 46.2851 19.7624 46.5927C21.4476 46.9002 21.2944 46.2851 22.137 46.2851L23.669 46.9771L23.5924 47.2077ZM44.1213 54.0505L43.4319 53.3585V54.0505H44.1213ZM13.6344 55.1269H12.945V55.4344H13.6344V55.1269ZM39.2955 62.3541L40.2913 61.8159L39.6019 60.9701L39.2955 62.3541ZM46.4959 62.3541L45.2703 62.0465L44.7341 62.8923C45.4235 63.8149 46.4959 63.5073 46.4193 62.3541H46.4959ZM15.0132 64.7375V63.738H14.86L14.3238 64.2762L15.0132 64.8144V64.7375ZM13.328 65.4295C13.1748 64.7375 12.6386 64.6606 11.9492 64.7375V65.4295H13.328ZM42.0531 65.045V65.8908L42.5893 66.429L43.1255 65.5832L42.1297 65.045H42.0531ZM50.5557 93.5693C51.0153 93.5693 51.6281 93.5693 52.0877 93.5693C52.5473 93.5693 52.3175 93.2618 52.3941 93.2618C52.7771 93.1849 53.3899 93.3387 53.7729 93.2618C54.1559 93.1849 54.0027 92.9543 54.0793 92.9543C54.1559 92.9543 54.3857 92.9543 54.3857 92.9543C55.2283 92.4929 55.6113 91.5703 55.9177 90.7246C56.2241 89.8789 56.2241 90.4939 56.2241 90.4171C56.5305 88.9562 56.2241 84.2663 56.2241 82.4979C56.2241 80.7296 55.6113 78.1155 55.5347 76.3471C55.4581 74.5788 55.7645 73.2717 55.5347 72.1953C55.3049 71.1189 54.9985 71.3496 54.8453 71.1958C54.6921 71.0421 54.8453 70.9652 54.8453 70.8883C54.3857 70.1963 53.0835 69.8888 52.3175 70.0426C51.5515 70.1963 52.0877 70.3501 52.0111 70.3501C51.5515 70.3501 50.9387 70.3501 50.4791 70.3501C50.6323 70.8883 50.1727 71.0421 50.1727 71.1958C49.8663 72.8873 50.7089 74.3481 50.4791 76.0396C50.0961 78.9612 50.0961 81.8059 50.4791 84.6507C50.8621 87.4954 49.9429 87.8799 50.1727 89.802C50.4025 91.7241 50.4791 90.0326 50.4791 90.1095C50.5557 91.2628 50.4791 92.4929 50.4791 93.7231L50.5557 93.5693ZM14.3238 71.5802C15.0898 71.5802 15.626 71.734 16.009 71.0421C15.5494 70.3501 15.0132 70.5039 14.3238 70.5039V71.5034V71.5802ZM45.4235 74.3481V73.6561L44.7341 74.1943V74.3481H45.4235ZM46.1129 82.5748V81.8828H45.8065V82.5748H46.1129ZM41.3637 86.0346C41.3637 85.1889 42.2063 84.6507 41.2105 83.9587C40.9041 84.3431 38.5295 86.2653 38.9891 86.7266L41.3637 86.0346ZM17.0814 86.0346V85.3427H16.775V86.0346H17.0814ZM14.0174 89.11V88.5718L13.4812 88.0336L12.945 88.5718V89.11H13.9408H14.0174ZM19.1496 89.802L20.1454 89.2638L19.6092 88.418L19.073 88.9562V89.802H19.1496ZM40.9807 91.1859L40.4445 90.4939L39.9083 91.0321V91.1859H40.9041H40.9807ZM15.0132 92.8774H14.3238V93.5693H15.0132V92.8774ZM48.8705 95.9528V95.4146L48.3343 94.8764L47.7981 95.4146L48.3343 95.9528H48.8705ZM42.0531 98.0287V97.3367H41.7467V98.0287H42.0531ZM13.6344 98.0287H12.2556C12.1024 99.1819 12.8684 99.9508 13.6344 98.8744V98.0287ZM33.4739 100.105L34.1633 99.5664L33.6271 99.0282H33.4739V100.028V100.105ZM40.6743 102.488L39.9849 101.796V102.488H40.6743Z" fill="white"/>
<path d="M213.025 86.1884L211.799 85.3426C211.646 85.3426 211.57 85.6502 211.493 85.6502C211.033 85.7271 208.506 85.7271 208.046 85.6502C207.586 85.5733 206.897 84.9582 206.82 84.8045C206.744 84.6507 206.82 84.3431 206.82 84.1125C206.82 83.8818 206.054 83.6512 206.82 83.113L206.514 82.421L206.82 81.7291C206.131 80.0376 206.82 78.8074 206.514 76.8853C206.208 74.9632 206.744 75.4245 206.82 74.6556C207.893 74.6556 208.965 74.7325 210.038 74.6556C211.11 74.5788 213.025 74.425 213.791 74.3481C216.472 73.8868 218.157 74.5788 220.609 74.3481C223.06 74.1174 223.29 74.1943 224.362 74.0406C225.434 73.8868 226.737 74.2712 226.89 74.8863C227.043 75.5014 226.89 75.3476 226.89 75.5783C226.89 75.8089 227.196 75.8089 227.196 75.8858C227.349 76.7315 227.043 77.8848 227.196 78.6537C227.349 79.4225 227.656 78.8843 227.503 79.3456C226.43 83.3436 227.809 88.5718 226.813 92.7236C225.817 96.8754 226.966 93.7231 226.813 94.4151C226.507 96.3372 227.043 98.9513 226.813 100.95C226.583 101.488 226.047 101.873 225.817 102.334C225.588 102.796 225.817 102.642 225.817 102.642C225.281 103.334 224.745 103.487 224.285 103.872C223.672 104.41 221.528 106.102 220.838 106.255C220.149 106.409 219.153 106.178 218.464 106.255C217.774 106.332 217.085 106.87 216.089 106.563C215.093 106.255 213.331 106.486 211.953 106.255C209.731 105.871 206.974 106.947 204.446 106.563C201.918 106.178 201.229 106.332 199.62 106.255C198.011 106.178 193.569 106.64 192.113 106.255C190.658 105.871 190.581 105.102 190.045 104.871C189.126 104.487 189.662 104.256 189.049 103.872C188.436 103.487 187.287 102.796 187.134 102.334C186.981 101.873 187.211 101.796 187.134 101.642C186.981 101.258 186.138 100.181 186.138 99.9508C185.832 98.4131 186.368 95.799 186.138 94.1075C185.909 92.4161 185.985 88.4949 185.832 85.8808C185.679 83.2668 186.215 82.2673 186.138 82.1135C184.913 77.731 187.058 69.9657 185.832 64.5837C184.606 59.2018 186.445 60.5857 186.138 59.4324C185.832 58.2792 186.138 57.2028 185.832 55.6651C185.526 54.1274 186.675 53.8198 186.828 53.2816C186.981 52.7434 186.751 52.5128 186.828 52.2821C186.904 52.0515 188.36 50.5907 188.743 50.36C189.279 49.9756 191.271 47.9766 191.5 47.9766C191.807 47.8997 192.266 48.0535 192.496 47.9766C192.726 47.8997 192.726 47.669 192.803 47.669C193.875 47.3615 194.564 47.1308 195.56 47.669C202.914 47.054 210.727 47.8228 218.464 47.3615C219.689 47.7459 221.068 48.0535 222.37 48.361C222.294 49.668 224.515 49.668 225.128 50.5907C225.741 51.5133 225.281 51.7439 226.507 52.2821L227.503 55.742C226.43 57.5103 227.273 58.9711 226.813 60.8932C226.354 62.8154 227.579 62.8923 227.503 63.2767L226.813 64.2762C227.503 65.1219 227.273 66.5827 226.277 67.1978C225.281 67.8129 226.047 67.1978 225.971 67.1978C225.894 67.1978 225.741 67.5053 225.664 67.5053C225.128 67.6591 224.285 67.4285 223.596 67.5053C222.447 67.6591 220.915 68.1204 219.459 67.8129C218.004 67.5053 217.698 67.8129 216.395 67.5053C215.093 67.1978 214.634 68.1204 213.638 67.8129C212.642 67.5053 212.795 66.7365 212.795 66.5827C212.412 64.7375 213.178 61.5083 212.795 59.74C212.412 57.9716 212.489 59.5093 212.489 59.4324C212.489 59.3555 212.489 59.1249 212.489 59.1249C211.953 58.356 210.421 58.1254 209.578 58.2792C208.735 58.4329 208.352 58.8942 208.199 58.9711C207.433 59.1249 206.437 58.4329 205.442 58.9711L204.063 58.2792C203.68 59.048 201.075 58.356 200.846 58.5867L200.156 59.8169C200.999 60.4319 200.156 61.2777 200.156 61.5083C199.773 64.0455 200.463 66.8903 200.156 69.043C199.85 71.1958 200.463 74.425 199.85 77.2697C199.237 80.1145 200.769 79.6532 200.539 81.0371C200.08 84.0356 200.08 88.2643 200.539 91.6472C200.999 95.0301 200.692 93.6462 200.233 94.0306L201.075 95.2608L202.761 94.9533C204.676 96.0297 207.969 94.3382 209.578 95.9528H209.884C210.114 95.799 210.804 95.2608 210.88 95.2608C211.263 95.1839 212.795 95.4146 212.795 94.7226V86.1115L213.025 86.1884ZM200.08 50.6675C199.62 50.4369 198.854 51.2057 199.084 51.3595C199.543 51.5902 200.309 50.8213 200.08 50.6675ZM208.582 50.9751H206.897L207.203 52.6666C208.506 52.8203 208.735 52.1284 208.582 50.9751ZM211.187 53.7429L210.65 54.2811L211.187 55.1269L211.723 54.2811L211.187 53.7429ZM192.496 55.1269V54.4349H192.19V55.1269H192.496ZM194.258 55.4344H193.569V55.742H194.258V55.4344ZM215.783 57.2028V56.5108L215.093 57.049V57.2028H215.783ZM219.23 58.8942L219.919 58.356V58.0485L219.383 57.5103H219.23V58.8942ZM192.879 59.2018C192.19 59.2018 191.73 58.6636 190.964 58.8942C190.198 59.1249 190.351 59.5862 190.428 59.8937C191.041 59.8937 191.654 59.8937 192.343 59.8937C193.032 59.8937 193.339 59.5862 192.879 59.2018ZM189.126 67.5053V66.1214H188.973L188.436 66.6596V66.9672L189.126 67.5053ZM192.879 75.3476V74.6556H192.573V75.3476H192.879ZM218.157 84.9582V83.9587H217.851V84.9582H218.157ZM216.089 86.7266V86.0346H215.783V86.7266H216.089ZM219.23 87.4185V86.0346H218.923V87.4185H219.23ZM197.628 87.7261V86.7266H197.322V87.7261H197.628ZM220.225 87.7261V87.0341H219.919V87.7261H220.225ZM217.468 90.4939H216.778V91.1859L217.468 90.4939ZM221.911 94.2613L221.221 93.5693V94.2613H221.911ZM215.783 96.6447V95.9528L215.093 96.491V96.6447H215.783ZM202.071 98.0287H201.382V98.3362H202.071V98.0287ZM208.123 100.412L207.586 100.95L208.123 101.796L208.659 100.95L208.123 100.412ZM210.957 101.488V100.95L210.267 100.412V101.412H210.957V101.488ZM203.833 102.488V101.796H203.527V102.488H203.833Z" fill="white"/>
<path d="M324.172 106.255C324.632 105.256 323.253 104.794 323.176 104.333C323.1 103.872 323.253 103.103 323.176 102.642C323.1 102.18 322.18 101.411 322.18 101.258C321.797 99.8738 321.568 98.1823 321.185 96.7984C320.802 95.4144 320.572 96.3371 320.495 96.1064C320.112 94.7225 319.959 92.8003 319.499 91.6471C318.81 89.8018 317.891 88.341 317.814 86.342H317.125C317.355 85.8038 316.512 85.1119 316.435 84.8043C316.282 84.1124 316.742 83.4204 315.899 82.8822H313.524L311.303 84.1124C311.303 84.7274 311.226 85.5732 311.303 86.1882C311.533 87.6491 311.073 88.7255 311.303 90.34C311.533 91.9546 311.763 93.4923 311.609 94.1074C311.303 95.3376 311.303 99.9507 311.609 101.335C311.916 102.719 310.384 104.256 311.303 105.102V105.409C310.001 106.87 308.009 106.025 306.324 106.255C304.639 106.486 305.558 106.793 304.639 106.563C303.03 106.255 299.89 106.255 298.511 106.563C297.132 106.87 297.132 106.563 296.979 106.025C296.749 105.179 297.362 104.718 297.285 104.641C297.285 104.487 296.979 104.41 296.979 104.333C296.749 102.719 297.821 101.027 297.668 100.566C297.515 100.104 296.596 99.5662 296.979 97.7979C297.362 96.0295 297.515 91.724 297.285 89.8787C297.055 88.0335 296.979 86.4189 297.285 84.7274C297.592 83.036 297.055 80.6525 297.592 78.1922C298.128 75.7319 296.672 75.8088 296.902 74.0404C297.209 71.5032 297.975 68.7354 297.592 65.8137C297.209 62.8921 297.132 65.3524 297.285 64.4298C297.515 63.1228 297.515 58.6634 297.285 57.2026C297.055 55.7418 297.592 55.7418 297.592 55.5112C297.898 53.3584 297.132 49.8986 297.592 47.9764C298.051 46.0543 297.898 47.7458 297.898 47.6689C297.898 47.592 297.898 47.3614 297.898 47.3614C298.051 47.0538 298.511 46.8232 298.741 46.5156L300.426 46.8232C301.268 45.7468 304.332 46.9769 304.869 46.8232C305.941 46.5156 306.477 46.5925 307.243 46.5156C308.469 46.285 310.231 46.6694 311.533 46.5156C311.533 47.1307 311.456 47.8227 311.533 48.4377C311.916 50.8981 311.303 53.4353 311.839 55.9725L311.15 56.972L311.456 58.6634C310.69 59.8936 311.763 62.969 311.456 64.1223C310.92 66.2751 311.15 66.8901 311.456 68.966C311.763 71.0419 311.456 70.0424 311.456 70.5037C312.069 70.2731 312.605 70.965 312.988 70.8113C313.371 70.6575 313.218 70.5037 313.295 70.5037C314.137 70.35 316.282 70.8881 316.512 69.9655C316.742 69.0429 316.512 69.5042 316.512 69.2736C316.895 68.1972 316.665 67.8128 316.818 66.8901C316.972 65.9675 317.891 64.7374 318.197 63.8147C318.58 62.5077 319.193 61.3544 319.576 60.0474C319.959 58.7403 320.342 57.2795 320.955 56.28C322.027 54.4348 321.491 54.8961 321.951 53.2046C322.41 51.5131 322.793 52.2051 322.946 51.8207C323.329 50.8212 323.559 49.2835 323.942 48.3609C324.325 47.4382 324.249 47.7458 324.249 47.6689C324.632 46.9769 325.551 46.5156 326.164 46.1312H326.47C326.623 46.1312 326.7 46.4387 326.776 46.4387C328.462 46.8232 331.372 45.6699 333.287 46.1312C335.202 46.5925 334.819 45.593 335.662 45.8237C336.505 46.0543 335.892 46.1312 335.968 46.1312C336.428 46.1312 336.888 46.1312 337.347 46.1312C338.649 46.285 338.113 47.6689 338.19 48.6684L337.194 50.0523C336.888 51.8207 336.045 53.589 335.509 55.2036C334.973 56.8182 333.977 58.8172 333.441 60.6625C332.904 62.5077 333.058 62.2002 332.751 63.0459C332.292 64.5067 331.832 65.9675 331.372 67.5052C330.913 69.0429 330.913 68.2741 330.683 69.1967C330.3 70.5806 328.538 72.8872 328.308 74.0404C328.079 75.1937 328.615 75.8857 328.002 76.4239C328.768 76.8083 328.538 77.5002 328.691 77.8078C328.998 78.4998 329.534 79.1917 329.687 79.8837C330.53 82.4978 331.219 85.1887 332.062 87.8028C332.904 90.4169 334.207 92.339 334.436 93.6461C334.666 94.9531 334.283 94.8762 334.436 95.3376C334.59 95.7989 335.356 96.3371 335.432 96.7215C335.815 98.1823 336.045 99.72 336.428 101.181C336.811 102.642 337.271 102.18 337.424 102.565C337.577 102.949 337.271 103.334 337.73 103.564L336.198 106.486C334.973 106.486 333.67 106.563 332.445 106.486C331.219 106.409 328.462 106.332 327.006 106.178C325.551 106.025 323.866 106.332 323.789 106.178L324.172 106.255ZM301.268 58.8941H300.579V59.2016H301.268V58.8941ZM305.405 59.5861L304.715 58.8941V59.5861H305.405ZM303.643 61.9695H302.954V62.277H303.643V61.9695ZM320.802 66.8132C320.955 66.967 321.721 66.1982 321.491 65.8137C321.338 65.66 320.572 66.4288 320.802 66.8132ZM324.172 68.1972V67.5052H323.866V68.1972H324.172ZM324.555 70.5806H323.866V70.8881H324.555V70.5806ZM321.108 71.2726H320.572L320.036 71.8108L320.572 72.349H321.108V71.3495V71.2726ZM300.579 72.2721H299.89V72.5796H300.579V72.2721ZM303.643 73.3485H301.958V73.5022C302.494 74.2711 303.337 74.2711 303.643 73.3485ZM322.18 74.6555H321.491V75.3475L322.18 74.6555ZM312.605 76.0394H311.916L312.452 76.7314H312.605V76.0394ZM324.172 78.4229V77.7309H323.866V78.4229H324.172ZM322.487 79.4993H321.797L322.334 80.1912H322.487V79.4993ZM320.112 81.1907H319.576L319.04 81.8827H320.036V81.1907H320.112ZM323.866 83.5742V82.8822H323.559V83.5742H323.866ZM326.93 84.6505H325.934C325.934 85.4963 325.704 86.1883 326.47 86.7264C327.236 86.2651 326.93 85.4963 327.006 84.6505H326.93ZM307.779 90.8013L307.09 90.1094V90.8013H307.779ZM302.341 96.6446H301.651V97.3366H302.341V96.6446ZM331.372 97.3366H330.683V97.6441H331.372V97.3366ZM303.337 98.3361L302.8 97.6441H302.264V98.3361H303.26H303.337ZM306.401 102.18L306.707 101.335V100.643L306.018 100.104V102.18H306.324H306.401Z" fill="white"/>
<path d="M492.846 47.5917C492.846 47.8992 492.846 48.2068 492.846 48.4374C493.382 50.4364 495.144 53.3581 494.531 55.2802C493.918 57.2023 495.373 58.4325 495.527 59.0475C496.139 61.431 496.676 63.8913 497.212 66.2747C497.748 68.6582 498.131 68.735 498.208 69.7345C498.437 71.8873 498.054 72.0411 498.897 74.1939C499.74 76.2698 499.51 78.4994 500.276 80.7291C500.812 82.1899 500.889 83.1894 501.272 84.4964C501.808 86.111 502.88 88.802 502.267 90.3397C503.493 91.3392 502.497 93.4151 503.953 94.4915L503.646 95.491C504.719 96.3367 504.106 97.7207 504.336 98.5664C504.565 99.4121 504.948 99.0277 505.025 99.2584C505.178 99.8734 504.872 101.027 505.025 101.642C505.178 102.257 505.638 102.103 505.714 102.334C505.868 102.872 505.638 103.795 505.714 104.41C505.791 105.025 506.251 104.794 506.021 105.409L504.795 106.639C503.493 106.486 501.884 106.87 500.659 106.639C499.433 106.409 496.752 106.947 494.837 106.639C492.922 106.332 493.688 105.794 493.152 106.639L491.237 104.717C491.16 103.948 491.39 103.026 491.237 102.334C491.084 101.642 490.088 99.4121 489.858 98.5664C489.628 97.7207 490.011 97.1056 489.858 96.4905C489.705 95.8754 489.552 96.2598 489.552 96.183C489.552 96.1061 489.552 95.8754 489.552 95.8754C489.475 95.7216 488.862 95.1066 488.709 95.0297C488.556 94.9528 488.479 95.0297 488.403 95.0297C488.326 95.0297 488.173 94.7221 488.096 94.7221C487.713 94.6453 486.488 94.7221 486.028 94.7221C484.496 94.8759 484.726 94.8759 483.271 94.7221C481.815 94.5684 480.053 94.799 478.445 94.7221C477.908 95.1834 477.602 95.8754 476.913 95.7216C476.683 96.4136 477.449 96.9518 477.219 97.6438C476.989 98.3357 476.606 98.1051 476.53 98.3357C476.223 99.5659 476.606 101.565 475.534 102.488L475.84 103.871C475.84 104.333 474.844 105.486 474.844 105.563C474.844 105.794 474.844 106.024 474.844 106.255C474.691 106.87 472.929 106.87 472.317 106.793C470.019 106.409 466.801 107.101 464.12 106.486C461.439 105.87 462.665 107.024 462.052 106.793C461.899 106.409 461.439 106.486 461.363 106.486C460.444 105.947 460.367 104.871 460.52 103.948C460.673 103.026 460.827 103.718 460.827 103.641C461.21 102.257 461.133 100.796 462.205 99.489L461.899 98.4895C462.665 96.7212 462.818 94.5684 463.278 92.6462C465.193 85.0346 467.108 77.3462 468.41 69.2732C470.555 66.8129 468.793 63.1224 471.474 61.0466L470.785 59.3551C471.321 58.5093 471.168 57.2792 471.474 56.2797C471.78 55.2802 472.087 55.8184 472.163 55.5877C472.393 54.742 472.163 53.9731 472.163 53.8963C472.546 52.4354 473.159 50.8977 473.542 49.4369C473.925 47.9761 473.466 48.6681 473.542 48.4374C473.772 47.6686 475.074 47.4379 475.764 47.5917C476.453 47.7455 475.993 47.8992 476.07 47.8992C477.372 48.053 478.598 48.2068 479.824 47.8992C481.049 47.5917 482.122 47.8223 483.271 47.5917C485.032 47.2073 487.56 47.8223 489.092 47.8992C490.624 47.9761 491.467 47.8992 492.692 47.8992L492.846 47.5917ZM489.705 52.051H489.016V52.743H489.705V52.051ZM476.377 53.4349C475.687 53.3581 475.227 53.8194 475.381 54.4345H476.377V53.4349ZM476.377 56.1259H475.687V57.1254L476.377 56.5872V56.049V56.1259ZM489.016 59.8933V59.2013H488.709V59.8933H489.016ZM488.02 66.121H487.33V66.4285H488.02V66.121ZM480.819 83.2663H485.798L486.335 82.7281C486.335 81.5748 486.411 80.4215 486.335 79.2683C486.258 78.115 486.105 75.8853 486.028 75.5009C485.952 75.1165 485.109 74.9627 485.339 74.117C485.568 73.2713 485.109 73.2712 485.032 72.7331C484.803 71.8104 485.186 70.2727 485.032 69.2732C484.879 68.2737 484.726 69.0426 484.726 68.9657C484.726 68.735 484.726 68.5044 484.726 68.2737C484.726 68.0431 484.42 68.0431 484.42 67.9662C484.42 67.8893 484.42 67.5049 484.42 67.428C484.42 67.3511 483.5 67.1973 483.194 67.1205C482.811 67.428 482.811 67.5818 482.658 67.9662C482.428 69.1195 482.428 70.4265 481.968 71.426L482.275 72.8099C480.896 75.5009 481.432 79.1145 480.896 82.113C480.36 85.1115 480.59 82.3437 480.59 82.4206C480.59 82.4974 481.126 82.805 480.896 83.2663H480.819ZM471.244 72.9637C471.397 72.118 471.091 71.5029 470.248 71.5798C470.095 72.4255 470.402 73.0406 471.244 72.9637ZM495.527 73.9632V72.5793H495.373L494.837 73.1175V73.425L495.527 73.9632ZM494.148 74.3476C493.152 74.3476 492.003 74.117 492.08 75.3471C493.075 75.3471 494.224 75.5778 494.148 74.3476ZM473.695 75.0396H473.006V75.3471H473.695V75.0396ZM495.22 78.4225L494.531 77.7306V78.4225H495.22ZM475.381 81.8824V80.4984L474.385 80.806V81.4979L475.381 81.8055V81.8824ZM489.399 80.8829C488.02 80.8829 488.02 82.6512 489.399 82.5743V80.8829ZM478.445 83.9583L476.07 83.2663C475.764 83.4969 476.683 84.5733 476.913 84.6502C477.449 84.804 478.828 84.8809 478.445 83.9583ZM470.938 86.0341C471.627 85.8804 471.704 85.3422 471.627 84.6502C470.938 84.804 470.861 85.3422 470.938 86.0341ZM497.288 86.3417V84.6502H497.135C496.369 85.1884 496.369 86.0341 497.288 86.3417ZM478.828 88.4176V87.7256H478.521V88.4176H478.828ZM471.934 91.493V90.4935H471.78L471.244 91.0317V91.5699H471.934V91.493ZM468.563 91.493H467.184V92.4925H468.563V91.493ZM474.691 91.8774H474.002V92.1849H474.691V91.8774ZM477.449 92.1849H476.76V92.4925H477.449V92.1849ZM493.841 93.8764H493.152V94.1839H493.841V93.8764ZM499.969 97.0287C500.046 96.4136 499.969 95.8754 499.28 95.6448V97.0287H499.969ZM473.006 98.7202H471.627V98.8739C472.087 99.2584 472.317 99.8734 473.006 99.7197V98.7202Z" fill="white"/>
<path d="M344.011 106.64C344.241 106.024 343.705 105.563 343.705 105.409C343.628 104.794 343.628 102.872 343.705 102.334C343.782 101.796 344.165 101.181 344.394 100.258C345.543 95.0299 347.382 89.9555 347.841 84.4967C349.144 80.6524 350.446 75.8856 350.599 72.1182C351.135 71.0418 351.748 69.0428 351.978 67.9664C352.208 66.89 352.361 64.5066 352.667 63.5071C352.974 62.5076 353.28 63.0458 353.357 62.8151C353.816 61.0468 353.816 59.2784 354.352 57.3563C354.889 55.4342 355.272 53.5889 355.731 51.513C356.191 49.4372 355.884 50.7442 356.038 50.1291C356.191 49.514 356.65 48.5145 357.263 47.8995L359.638 47.2075C360.557 47.8995 362.166 47.3613 363.391 47.515C365.613 47.8226 366.991 47.4381 369.213 47.2075C371.434 46.9768 371.587 47.4381 372.966 47.2075C374.345 46.9768 374.345 47.2075 375.034 47.2075L375.877 48.4377C376.566 50.5904 376.643 52.7432 377.562 54.5884L377.256 56.2799L378.252 57.6638L377.945 58.6633C378.481 59.7397 379.554 61.9694 378.941 62.8151V63.1227C380.243 64.1222 379.707 66.1981 379.937 67.582C380.167 68.9659 380.473 68.5815 380.626 69.6579C380.933 71.3494 381.775 74.0403 382.311 76.1931C382.848 78.3459 383.077 81.7288 383.69 84.4198C384.303 87.1108 384.992 86.3419 385.069 86.8032C385.375 88.4178 385.375 90.0324 385.758 91.647C386.141 93.2616 386.601 95.7988 387.137 97.7978C387.597 99.7199 387.827 101.796 388.822 103.641L388.516 106.024L387.98 106.563C387.52 106.563 387.061 106.563 386.601 106.563C386.141 106.563 386.371 106.87 386.295 106.87C386.218 106.87 386.065 106.563 385.988 106.563C384.609 106.332 383.001 106.409 381.852 106.563C379.86 106.87 377.103 106.332 375.034 106.563L374.192 105.717C374.039 104.794 374.345 103.487 374.192 102.642C374.039 101.796 373.502 101.719 373.502 101.642C373.196 100.335 373.273 99.3355 372.813 97.8747C372.353 96.4138 372.813 96.7983 372.813 96.4907C372.813 96.1832 372.507 96.2601 372.507 96.1832C372.507 95.9525 372.507 95.7219 372.507 95.4912C372.277 94.7993 371.434 95.1068 370.975 94.953C369.851 94.6967 368.702 94.6967 367.528 94.953C366.685 95.1837 366.302 94.6455 366.149 94.6455C364.617 94.4148 362.625 94.7993 361.017 94.6455C360.557 94.8761 360.634 95.3374 360.48 95.4912C360.327 95.645 359.791 96.4138 359.791 96.4907C359.638 97.1827 359.638 98.1053 359.485 98.8742C359.331 99.643 359.331 100.719 359.178 101.642C359.025 102.565 358.489 102.565 358.489 102.642C358.336 103.257 358.259 103.795 358.182 104.333C358.106 104.871 358.259 105.102 358.182 105.332C358.106 105.563 357.033 106.486 356.957 106.563C356.114 106.793 355.425 106.024 354.582 106.255C353.05 106.64 352.284 106.87 350.829 106.563C349.373 106.255 347.075 106.409 346.003 106.563C344.931 106.716 344.701 106.563 344.088 106.563L344.011 106.64ZM360.097 49.5909H359.408V49.8985H360.097V49.5909ZM362.472 58.5865H361.783V60.2779H362.472V58.5865ZM375.877 60.2779L375.188 59.586V60.2779H375.877ZM365.613 60.9699C364.923 60.893 364.464 61.3543 364.617 61.9694H365.613V60.9699ZM360.097 62.6614C360.174 62.0463 360.097 61.5081 359.408 61.2774V62.6614H360.097ZM370.362 61.2774H368.983C368.983 62.6614 370.362 62.6614 370.362 61.2774ZM363.544 64.3528C363.698 63.6609 363.085 63.4302 362.702 62.9689L362.166 63.8146L362.702 64.3528H363.544ZM356.344 63.6609H355.655V63.9684H356.344V63.6609ZM368.983 83.2665C368.906 82.3439 369.06 81.2675 368.983 80.3449C368.906 79.4223 368.447 79.576 368.677 78.6534C369.136 76.5775 367.757 74.8092 367.987 73.1946C368.217 71.58 368.217 72.1951 367.987 71.5031C367.757 70.8112 366.685 69.581 367.681 68.7353V68.4277C367.145 67.8126 366.685 67.3513 365.766 67.582C364.847 67.8127 365.383 68.9659 365.23 69.5041C364.847 71.4262 363.927 73.579 364.234 75.3474C364.54 77.1157 363.391 78.269 363.238 79.4992C363.085 80.7293 363.161 81.6519 363.238 82.267C363.315 82.8821 363.851 82.8821 363.544 83.4972C364.234 83.4972 364.617 84.0354 365.459 83.8047C366.302 83.5741 365.689 83.4972 365.766 83.4972C366.608 83.2665 367.298 84.0354 368.14 83.8047C368.983 83.5741 368.447 83.2665 368.983 83.4972V83.2665ZM372.047 68.5046H371.051V68.8122H372.047V68.5046ZM372.736 75.0398C372.583 74.3479 372.047 74.271 371.358 74.3479V75.0398H372.736ZM359.102 79.8067C358.795 79.0379 358.182 78.6534 357.416 78.8072C357.723 79.576 358.336 79.9605 359.102 79.8067ZM372.047 82.959H371.051V83.1127L371.587 83.6509L372.124 82.959H372.047ZM376.873 83.9585V83.2665H376.566V83.9585H376.873ZM355.655 85.65H354.659V86.3419H355.195L355.731 85.65H355.655ZM358.719 86.0344H358.029V86.7263H358.719V86.0344ZM366.608 87.4183H365.613V87.9565L366.149 88.4947L366.685 87.9565V87.4183H366.608ZM353.586 89.4173L353.05 88.7253L352.514 89.2635V89.4173H353.51H353.586ZM373.426 90.8012H372.736V91.1088H373.426V90.8012ZM383.001 91.4932V90.8012H382.694V91.4932H383.001ZM383.001 94.2611V93.7229L382.311 93.1847V94.1842H383.001V94.2611ZM383.001 95.645V94.953H382.694V95.645H383.001Z" fill="white"/>
<path d="M264.347 106.255C264.347 105.948 264.347 105.64 264.347 105.409C264.04 104.102 262.815 102.103 262.662 100.95C262.508 99.7969 262.815 98.9512 262.662 98.1823C262.508 97.4135 261.742 96.7984 261.666 96.4908C261.589 96.1833 261.742 95.722 261.666 95.4913C261.589 95.2607 261.13 95.1838 261.359 94.6456C260.823 94.7994 260.593 94.3381 260.517 94.3381C260.44 94.3381 260.057 94.8763 259.138 94.6456C257.529 94.2612 255.231 94.9531 253.316 94.6456C251.401 94.3381 251.478 94.7225 250.559 94.6456C250.406 94.9531 249.41 96.1064 249.333 96.1833C249.257 96.5677 249.333 97.1059 249.333 97.5672C249.333 98.0285 248.72 99.1818 248.644 99.6431C248.261 101.565 248.184 103.641 247.648 105.486L246.422 106.717C245.886 106.717 245.197 106.793 244.737 106.717C243.282 106.486 241.98 106.947 240.294 106.717C238.609 106.486 237.154 106.332 235.469 106.717C233.783 107.101 233.707 105.948 232.941 105.179C232.941 104.718 232.864 104.179 232.941 103.795C233.017 103.41 233.247 103.564 233.247 103.487C233.86 101.719 234.013 99.7969 234.626 98.0285C235.469 95.3376 235.622 92.4928 236.311 89.8019C237.001 87.1109 237.384 85.1888 237.996 82.9591C238.609 80.7294 238.226 80.8832 238.992 80.1912L238.686 78.8073C238.686 78.6535 238.992 78.5766 238.992 78.4998C239.835 76.4239 239.835 73.8098 240.371 71.657C240.907 69.5042 241.367 68.7354 241.75 67.1977C242.133 65.66 242.669 64.3529 242.746 63.4303C242.822 62.5077 242.592 61.2007 242.746 60.3549C242.899 59.5092 243.665 58.5866 243.741 57.9715C243.971 56.5876 244.048 54.4348 244.431 53.1277C244.814 51.8207 245.044 52.6664 245.12 52.4358C245.35 51.6669 245.044 51.1287 245.427 50.0523C245.81 48.976 246.346 47.9765 246.959 47.8227C247.571 47.6689 249.18 47.9765 250.023 47.8227C252.704 47.4383 255.155 47.3614 258.219 47.8227C261.283 48.284 259.981 47.592 261.283 47.8227C262.585 48.0533 264.883 47.3614 265.189 48.6684C265.496 49.9755 265.113 49.4373 265.189 49.6679C265.266 49.8986 265.879 50.5905 265.879 50.6674C265.955 51.1287 265.802 51.8976 265.879 52.3589C265.955 52.8202 266.568 53.2815 266.568 53.3584C266.721 54.0504 266.415 55.1268 266.568 55.7418C266.721 56.3569 267.181 56.2031 267.258 56.4338C267.564 57.5102 267.411 59.7398 267.564 60.8931C267.717 62.0464 269.632 64.0454 268.56 65.3524C270.168 66.967 269.556 68.8891 269.939 70.5037C270.322 72.1183 271.164 72.964 271.317 73.5791C271.471 74.1942 271.164 75.2706 271.317 75.9626C271.471 76.6545 272.007 76.8852 272.007 76.9621C272.16 77.654 271.854 78.6535 272.007 79.3455C272.313 80.6525 273.079 82.1902 273.386 83.8048C273.845 86.1883 274.994 89.4174 275.454 92.0315C275.914 94.6456 276.373 98.9512 277.139 101.95C277.905 104.948 278.135 103.334 278.135 103.641C278.365 104.718 278.212 105.948 277.292 106.563H267.717C267.181 105.794 266.875 106.563 266.721 106.563C265.879 106.793 265.113 106.025 264.194 106.255H264.347ZM253.087 53.7428H252.397V54.0504H253.087V53.7428ZM253.776 56.5107H253.087V56.8182H253.776V56.5107ZM248.644 57.2026H247.954V57.5102H248.644V57.2026ZM251.325 57.5102H249.64C249.486 58.2022 250.099 58.4328 250.482 58.8941L251.325 58.3559V57.5102ZM252.397 57.5102H251.708V57.8177H252.397V57.5102ZM256.84 60.278L255.461 58.8941L255.997 60.278L257.529 60.5856L256.84 60.278ZM249.333 60.97V60.278H249.027V60.97H249.333ZM259.215 61.662H259.751L260.287 61.1238L259.751 60.5856H259.215V61.5851V61.662ZM255.768 64.3529C256.074 63.9685 255.231 61.9695 254.389 62.277C254.159 62.8152 255.538 64.5836 255.768 64.3529ZM264.04 62.6615C263.351 62.6615 263.351 62.5077 263.351 63.1997C263.351 63.8916 263.581 64.4298 264.347 64.7374L264.04 62.6615ZM260.593 65.4293L261.13 66.4288L261.972 65.8906L261.436 65.3524H260.593V65.4293ZM255.308 67.5052C254.772 67.8897 254.695 68.5047 254.465 69.0429C254.236 69.5811 254.159 69.2736 254.159 69.3505C253.929 70.2731 254.312 71.7339 254.159 72.8103C254.006 73.8867 253.546 73.8867 253.853 75.1937C254.159 76.5008 253.393 79.8068 253.163 80.6525C252.933 81.4983 252.627 81.1907 252.857 82.0365L253.699 83.2666L256.457 82.9591L257.836 83.6511C259.215 82.8053 258.449 81.652 258.678 80.4219C258.908 79.1917 258.985 80.1912 258.985 80.1143C258.985 80.0375 258.295 78.5767 258.295 78.4229C258.142 77.3465 258.602 76.1932 257.606 75.3475L257.912 73.2716C256.61 72.0414 257.606 69.8118 257.223 68.4278C256.84 67.0439 255.997 68.0434 255.691 67.5821H255.385L255.308 67.5052ZM252.014 69.1967C252.014 68.7354 250.942 67.8896 250.635 68.1972C250.559 68.7354 250.789 68.8892 251.172 69.1967H252.014ZM262.968 70.8882C263.045 70.35 262.815 70.1193 262.432 69.8887C261.896 69.4273 260.517 68.6585 260.21 69.7349C259.904 70.8113 260.057 70.5806 260.364 70.5806L262.891 70.8882H262.968ZM262.968 77.1158L261.742 76.8083L261.206 78.4998C262.049 78.6535 262.968 78.0385 262.891 77.1158H262.968ZM268.79 80.8832H267.794C267.717 81.5752 268.177 82.0365 268.79 81.8827V80.8832ZM263.351 81.1907H262.662V82.5747C263.351 82.4209 263.428 81.8827 263.351 81.1907ZM250.635 87.726H249.946V88.0335H250.635V87.726ZM259.521 88.1104L258.525 88.6486V89.4943L259.521 88.9561V88.1104ZM249.64 88.7255C249.103 88.6486 248.95 88.8792 248.644 89.2637V90.1094H249.64V88.7255ZM252.704 89.1099V89.9556L253.546 90.4938L254.082 89.6481L253.546 89.1099H252.704ZM273.232 94.5687H271.547V94.8763C272.16 94.8763 272.543 95.4144 273.232 95.1838V94.4918V94.5687ZM245.197 96.3371H244.507V97.029H245.197V96.3371ZM237.996 97.721V96.7215H237.843L237.307 97.2597L237.996 97.7979V97.721Z" fill="white"/>
<path d="M162.775 94.5684C162.315 94.5684 161.703 94.5684 161.243 94.5684C160.783 94.5684 161.013 94.2609 160.937 94.2609C159.864 94.0302 158.945 95.1835 157.49 94.9528C156.034 94.7222 156.417 94.7991 155.115 94.9528C153.813 95.1066 153.2 94.9528 152.357 94.6453L150.825 96.183L151.132 97.5669C149.753 98.9509 150.136 101.565 149.753 103.41C149.37 105.255 148.757 104.64 148.757 104.794C148.681 105.102 148.834 105.563 148.757 105.794C148.681 106.024 147.991 106.639 147.915 106.639C147.302 106.793 142.629 106.716 141.787 106.639C140.025 106.409 138.723 106.87 136.961 106.332L135.965 106.639L135.122 106.332L134.816 104.794C135.352 104.487 135.046 103.948 135.122 103.41C135.352 102.334 135.659 101.181 135.812 100.335C136.195 98.182 137.191 96.3368 136.808 94.4915C138.11 93.2614 137.727 90.5704 138.186 89.0327C138.646 87.495 138.799 88.5714 138.876 88.3407C139.259 86.9568 139.029 85.1116 139.565 83.497C140.714 79.8065 141.097 75.9623 142.323 72.1949C143.165 69.5808 143.319 66.7361 144.391 64.2758L144.085 62.8918C145.617 60.9697 145.004 58.5863 146.459 56.741L145.77 55.7415C146.766 55.0496 146.383 53.6656 146.766 52.6661C147.149 51.6666 147.608 50.8209 147.761 49.8983C147.915 48.9757 147.608 48.5912 147.761 48.2068C148.068 47.2073 150.442 46.8998 150.979 48.053H151.285C152.204 46.6691 153.889 47.8224 154.732 47.3611H165.686C165.916 47.6686 166.375 47.8993 166.528 48.2068C166.911 48.8219 166.758 49.437 166.835 49.8983C166.911 50.3596 167.448 50.3596 167.524 50.5902C167.754 51.2822 168.29 53.8194 168.214 54.3576C167.984 55.6646 168.98 56.9717 169.209 58.5094C169.439 60.0471 169.822 62.8149 170.205 64.6602C170.588 66.5054 171.814 68.0431 171.201 69.5039C172.656 72.2718 172.427 75.8854 173.269 78.807C174.112 81.7286 174.265 79.5759 174.265 79.8065C174.495 80.7291 174.725 82.805 174.954 83.9583C175.337 85.9573 175.567 88.1101 175.95 90.1091C176.333 92.1081 177.865 92.3387 176.64 93.5689C177.176 94.6453 178.248 96.875 177.635 97.7207C178.478 99.2584 179.397 102.334 179.014 103.871C179.78 104.794 180.24 106.101 178.861 106.409C177.482 106.716 178.401 106.409 178.172 106.409C177.942 106.409 177.942 106.716 177.865 106.716C175.567 107.024 171.124 106.716 168.98 106.409C166.835 106.101 167.448 106.716 166.605 106.716C166.452 106.332 165.992 106.409 165.916 106.409C165.15 105.87 165.533 105.409 165.379 104.871C165.15 104.025 164.613 102.488 164.001 101.796L164.307 100.412L163.618 99.7197L163.924 98.7202C162.852 98.1051 163.464 97.1825 163.235 96.3368C163.005 95.491 162.392 95.3373 162.545 94.7991L162.775 94.5684ZM153.2 56.126H152.511V57.1255L153.2 56.5873V56.0491V56.126ZM165.15 56.126C164.154 55.9722 163.158 56.3566 163.081 57.5099C163.618 57.7405 165.379 56.3566 165.15 56.126ZM165.533 58.8938H164.843V59.5858H165.533V58.8938ZM163.771 64.7371V64.1989L163.081 63.6607V64.6602H163.771V64.7371ZM160.017 82.9588C159.864 81.7286 160.247 80.1909 160.017 79.0377C159.788 77.8844 158.639 76.8849 159.711 75.9623L159.022 74.9628C159.328 73.0406 158.868 70.7341 158.332 68.812C157.796 66.8898 157.566 67.5818 157.49 67.5818L155.958 68.4275L156.264 69.8115L155.575 70.811L155.881 71.8105L155.192 72.81C155.651 74.809 154.732 77.1924 154.502 79.3452C154.272 81.498 154.579 81.6517 154.502 82.805L157.413 84.3427H157.719C158.256 84.1121 158.179 83.3432 158.256 83.3432C158.332 83.3432 158.562 83.4201 158.792 83.3432C159.098 83.1894 159.328 82.805 160.017 83.0357V82.9588ZM161.703 69.5039C161.856 69.6577 162.622 68.8888 162.392 68.5044C162.239 68.3507 161.473 69.1195 161.703 69.5039ZM151.515 70.1959V69.5039H151.208V70.1959H151.515ZM147.378 71.9642H146L146.842 73.6557L147.378 71.9642ZM143.242 77.4231V76.7311H142.936V77.4231H143.242ZM144.314 78.115H143.625L144.161 78.807H144.314V78.115ZM170.282 81.1904H169.056C168.06 81.8824 168.673 82.6512 169.746 82.5744L170.282 82.0362V81.1904ZM164.154 82.2668H163.618L163.081 82.9588H164.077V82.2668H164.154ZM170.665 84.2658H169.975V84.5734H170.665V84.2658ZM142.936 85.3422H142.246V86.5724L142.782 87.1106H142.936V85.4191V85.3422ZM154.196 87.4181H153.2V87.5719L153.736 88.1101L154.272 87.4181H154.196ZM171.124 88.4176L170.588 88.9558L171.124 89.494L171.661 88.9558L171.124 88.4176ZM153.506 90.1091V89.4171H153.2V90.1091H153.506ZM171.967 94.9528H171.278V95.2604H171.967V94.9528ZM142.553 97.0287V96.3368H142.246V97.0287H142.553ZM147.072 96.3368H146.383V96.6443H147.072V96.3368Z" fill="white"/>
<path d="M4.05957 109.331C4.51917 109.715 4.90217 109.561 5.28517 109.638C5.66817 109.715 5.51497 110.099 5.97458 109.946C7.12358 109.638 10.111 109.331 11.4132 109.638C12.7154 109.946 13.0984 109.484 14.1708 109.638C17.9242 110.253 22.6734 109.177 26.5034 109.946L28.5716 109.254C30.6398 110.176 33.7805 109.254 36.0785 109.561C38.3765 109.869 39.4489 109.177 41.2107 109.561C42.9725 109.946 45.9599 109.254 48.4111 109.561C50.8623 109.869 53.1603 109.177 54.5391 109.561C55.9179 109.946 55.1519 110.099 55.0753 110.407C54.6923 110.945 54.4625 111.56 53.8497 111.945C53.2369 112.329 52.0879 112.867 51.7815 112.944C50.7091 113.329 49.6367 113.098 48.7175 113.252C47.7983 113.405 47.7983 113.944 47.7217 113.944C47.1089 114.097 46.2663 113.867 45.6535 113.944C44.2747 114.097 42.5895 114.943 41.2107 115.328C39.8319 115.712 36.9977 115.866 35.7721 115.635C34.1635 115.404 29.4142 115.251 27.1928 115.635C24.9714 116.02 25.2778 115.404 24.1288 115.635C22.9798 115.866 18.9966 115.251 17.6178 114.943C15.7028 114.482 13.2516 114.405 11.4898 113.944C9.72799 113.482 11.0302 113.329 10.8004 113.252C10.0344 113.021 8.27258 113.098 7.35338 112.944C6.43418 112.79 5.13197 111.714 4.97877 111.56C4.05957 110.868 4.05957 110.33 4.13617 109.177L4.05957 109.331Z" fill="white"/>
<path d="M29.0312 26.6023C29.0312 26.6023 29.1078 26.9868 29.0312 27.1405C28.2652 28.4476 25.3544 30.3697 24.8948 32.2918C24.1288 33.2144 23.8224 34.3677 23.516 35.3672C23.2096 36.3667 23.2096 35.5979 23.2096 35.6748C23.2096 36.0592 23.133 37.3662 23.2096 37.7506C23.2862 38.1351 23.516 37.9813 23.516 38.0582C23.6692 38.5195 23.9756 39.4421 24.2054 39.7497C24.7416 40.5954 25.7374 41.3642 26.2736 42.2869C24.665 42.5944 23.5926 41.3642 21.984 41.2874C20.2988 40.211 19.0732 38.6733 18.0774 36.9818C17.771 35.521 17.4646 33.0607 17.771 31.523C18.0774 29.9853 18.0774 31.2923 18.0774 31.2154C18.0774 30.9848 18.0774 30.7541 18.0774 30.5235C18.0774 30.2928 18.92 29.8315 19.0732 29.524C19.2264 29.2164 19.303 28.6013 19.3796 28.5245C20.5286 26.833 23.2096 25.4491 24.2054 24.0651C25.2012 22.6812 27.1162 20.9129 28.3418 18.9138C29.5674 16.9148 28.9546 18.0681 29.0312 17.9143C29.1078 17.6068 29.0312 17.2224 29.0312 16.9148C29.0312 16.6073 29.3376 16.6842 29.3376 16.6073C29.3376 16.2998 29.3376 15.5309 29.3376 15.2234C29.3376 14.9158 28.7248 14.3776 28.6482 14.2239C28.5716 14.0701 28.6482 13.7626 28.6482 13.5319C28.6482 13.3012 28.0354 12.5324 27.9588 12.5324C27.2694 11.6867 25.9672 11.5329 25.8906 10.3027L30.8696 12.3786C31.4824 13.1475 32.4782 13.8394 33.091 14.6083C33.7038 15.3771 34.0868 16.2229 34.0868 16.2998C34.24 16.9148 34.0102 17.7606 34.0868 18.3757C34.1634 18.9907 34.623 18.7601 34.3932 19.3752C34.0868 19.9133 33.6272 20.5284 33.3974 21.0666C32.7846 22.3737 30.7164 25.9873 29.4908 26.7561C28.2652 27.525 29.0312 26.7561 28.9546 26.7561L29.0312 26.6023Z" fill="white"/>
<path d="M34.8527 41.0565L31.6355 39.6725C31.3291 39.2881 30.7163 38.9037 30.4099 38.4424C30.1035 37.9811 30.4099 38.2117 30.4099 38.1348C30.2567 37.9042 29.7971 37.5966 29.7205 37.4429C29.6439 37.0584 29.7205 36.5203 29.7205 36.0589C29.7205 35.5976 29.4141 35.8283 29.4141 35.7514C29.4141 35.4439 29.4141 34.675 29.4141 34.3675C29.4141 34.0599 30.0269 33.5986 30.1035 33.368C30.1801 33.1373 30.1035 32.9067 30.1035 32.676C30.1035 32.4453 30.6397 32.2147 30.7929 31.984C32.4781 28.9086 35.2357 27.5247 37.3039 24.7569C39.3721 21.989 37.8401 23.6805 37.9933 23.3729C38.1465 23.0654 38.6827 22.4503 38.6827 22.3734C38.6827 22.0659 38.6827 20.682 38.6827 20.2975C38.6827 19.9131 37.9933 19.3749 37.9933 19.298C37.9933 19.0674 37.8401 18.1448 38.1465 18.0679C38.8359 18.7598 39.8317 19.1443 40.3679 19.99C40.9041 20.8357 40.5977 20.8357 40.6743 20.9895C40.7509 21.1433 41.2871 21.5277 41.3637 21.6815C41.4403 21.989 41.3637 22.3734 41.3637 22.681C41.3637 22.9885 41.6701 22.9116 41.6701 22.9885C41.7467 23.6805 41.7467 25.3719 41.6701 26.0639C41.5935 26.7559 41.3637 26.2946 41.3637 26.3714C41.2105 26.9865 41.2105 27.7554 41.0573 28.4473C39.5253 30.2157 37.4571 31.8303 35.9251 33.5986C34.3931 35.367 35.9251 33.9062 35.9251 33.9062C35.4655 34.5212 34.3931 35.2901 34.2399 35.9821C34.0867 36.674 34.5463 37.2891 33.9335 37.6735L34.9293 40.9027L34.8527 41.0565Z" fill="white"/>
</svg>
